<mxfile host="app.diagrams.net" modified="2023-10-31T18:40:23.488Z" agent="Mozilla/5.0 (Windows NT 10.0; Win64; x64) AppleWebKit/537.36 (KHTML, like Gecko) Chrome/118.0.0.0 Safari/537.36" etag="OwNGFJvsc9wN2Yzb172x" version="22.0.8" type="device">
  <diagram name="第 1 页" id="GRBYXlj9DiwisOkSgem3">
    <mxGraphModel dx="1050" dy="557" grid="1" gridSize="10" guides="1" tooltips="1" connect="1" arrows="1" fold="1" page="1" pageScale="1" pageWidth="827" pageHeight="1169" math="0" shadow="0">
      <root>
        <mxCell id="0" />
        <mxCell id="1" parent="0" />
        <mxCell id="7GQaFum0_5wX87JPj5HT-1" value="" style="rounded=0;whiteSpace=wrap;html=1;" vertex="1" parent="1">
          <mxGeometry x="60" y="80" width="690" height="420" as="geometry" />
        </mxCell>
        <mxCell id="7GQaFum0_5wX87JPj5HT-11" value="" style="endArrow=none;html=1;rounded=0;" edge="1" parent="1" target="7GQaFum0_5wX87JPj5HT-1">
          <mxGeometry width="50" height="50" relative="1" as="geometry">
            <mxPoint x="60" y="290" as="sourcePoint" />
            <mxPoint x="110" y="240" as="targetPoint" />
          </mxGeometry>
        </mxCell>
        <mxCell id="7GQaFum0_5wX87JPj5HT-13" value="" style="endArrow=none;html=1;rounded=0;" edge="1" parent="1" target="7GQaFum0_5wX87JPj5HT-1">
          <mxGeometry width="50" height="50" relative="1" as="geometry">
            <mxPoint x="60" y="290" as="sourcePoint" />
            <mxPoint x="110" y="240" as="targetPoint" />
            <Array as="points">
              <mxPoint x="320" y="290" />
              <mxPoint x="100" y="290" />
            </Array>
          </mxGeometry>
        </mxCell>
        <mxCell id="7GQaFum0_5wX87JPj5HT-15" value="" style="endArrow=none;dashed=1;html=1;rounded=0;exitX=0.37;exitY=1;exitDx=0;exitDy=0;exitPerimeter=0;" edge="1" parent="1" source="7GQaFum0_5wX87JPj5HT-1">
          <mxGeometry width="50" height="50" relative="1" as="geometry">
            <mxPoint x="270" y="130" as="sourcePoint" />
            <mxPoint x="320" y="80" as="targetPoint" />
            <Array as="points">
              <mxPoint x="320" y="510" />
            </Array>
          </mxGeometry>
        </mxCell>
        <mxCell id="7GQaFum0_5wX87JPj5HT-16" value="python" style="ellipse;whiteSpace=wrap;html=1;aspect=fixed;" vertex="1" parent="1">
          <mxGeometry x="80" y="310" width="70" height="70" as="geometry" />
        </mxCell>
        <mxCell id="7GQaFum0_5wX87JPj5HT-18" value="java" style="ellipse;whiteSpace=wrap;html=1;aspect=fixed;" vertex="1" parent="1">
          <mxGeometry x="160" y="310" width="70" height="70" as="geometry" />
        </mxCell>
        <mxCell id="7GQaFum0_5wX87JPj5HT-19" value="html" style="ellipse;whiteSpace=wrap;html=1;aspect=fixed;" vertex="1" parent="1">
          <mxGeometry x="240" y="310" width="70" height="70" as="geometry" />
        </mxCell>
        <mxCell id="7GQaFum0_5wX87JPj5HT-20" value="css" style="ellipse;whiteSpace=wrap;html=1;aspect=fixed;" vertex="1" parent="1">
          <mxGeometry x="160" y="400" width="70" height="70" as="geometry" />
        </mxCell>
        <mxCell id="7GQaFum0_5wX87JPj5HT-21" value="c++" style="ellipse;whiteSpace=wrap;html=1;aspect=fixed;" vertex="1" parent="1">
          <mxGeometry x="80" y="400" width="70" height="70" as="geometry" />
        </mxCell>
        <mxCell id="7GQaFum0_5wX87JPj5HT-22" value="c#" style="ellipse;whiteSpace=wrap;html=1;aspect=fixed;" vertex="1" parent="1">
          <mxGeometry x="240" y="400" width="70" height="70" as="geometry" />
        </mxCell>
        <mxCell id="7GQaFum0_5wX87JPj5HT-24" value="自我介紹" style="rounded=0;whiteSpace=wrap;html=1;" vertex="1" parent="1">
          <mxGeometry x="80" y="210" width="220" height="60" as="geometry" />
        </mxCell>
        <mxCell id="7GQaFum0_5wX87JPj5HT-25" value="相片" style="ellipse;whiteSpace=wrap;html=1;aspect=fixed;" vertex="1" parent="1">
          <mxGeometry x="80" y="100" width="80" height="80" as="geometry" />
        </mxCell>
        <mxCell id="7GQaFum0_5wX87JPj5HT-26" value="姓名" style="rounded=0;whiteSpace=wrap;html=1;" vertex="1" parent="1">
          <mxGeometry x="180" y="110" width="120" height="60" as="geometry" />
        </mxCell>
        <mxCell id="7GQaFum0_5wX87JPj5HT-27" value="經歷" style="shape=process;whiteSpace=wrap;html=1;backgroundOutline=1;" vertex="1" parent="1">
          <mxGeometry x="345" y="120" width="365" height="160" as="geometry" />
        </mxCell>
        <mxCell id="7GQaFum0_5wX87JPj5HT-28" value="作品" style="rounded=1;whiteSpace=wrap;html=1;" vertex="1" parent="1">
          <mxGeometry x="345" y="310" width="365" height="150" as="geometry" />
        </mxCell>
      </root>
    </mxGraphModel>
  </diagram>
</mxfile>
